<svg width="24" height="16" viewBox="0 0 24 16" fill="none" xmlns="http://www.w3.org/2000/svg">
<rect x="0.833293" y="0.166667" width="23" height="15.6667" rx="1.16667" fill="#1F72CD" stroke="#D9D9D9" stroke-width="0.333333"/>
<path fill-rule="evenodd" clip-rule="evenodd" d="M5.12074 5.66675L3 10.4979H5.53882L5.85356 9.72762H6.57299L6.88773 10.4979H9.68226V9.91L9.93127 10.4979H11.3768L11.6258 9.89758V10.4979H17.4377L18.1444 9.74763L18.8061 10.4979L21.7912 10.5041L19.6638 8.09582L21.7912 5.66675H18.8524L18.1645 6.40317L17.5236 5.66675H11.2011L10.6581 6.91371L10.1025 5.66675H7.56896V6.23465L7.28712 5.66675H5.12074ZM13.7995 6.35282H17.137L18.1577 7.48787L19.2114 6.35282H20.2322L18.6812 8.09518L20.2322 9.81746H19.1651L18.1443 8.66922L17.0853 9.81746H13.7995V6.35282ZM14.6237 7.70347V7.07063V7.07003H16.7062L17.6149 8.0821L16.6659 9.09971H14.6237V8.40883H16.4445V7.70347H14.6237ZM5.61193 6.35282H6.84947L8.25616 9.62886V6.35282H9.61183L10.6983 8.70173L11.6997 6.35282H13.0486V9.8195H12.2278L12.2211 7.10303L11.0245 9.8195H10.2903L9.08695 7.10303V9.8195H7.39842L7.07831 9.04232H5.34886L5.02941 9.81882H4.12472L5.61193 6.35282ZM5.64417 8.32382L6.21395 6.93933L6.78307 8.32382H5.64417Z" fill="white"/>
</svg>
