<svg width="24" height="16" viewBox="0 0 24 16" fill="none" xmlns="http://www.w3.org/2000/svg">
<rect x="0.500041" y="0.166667" width="23" height="15.6667" rx="1.16667" fill="white" stroke="#D9D9D9" stroke-width="0.333333"/>
<path d="M15.1179 3.33325C17.6301 3.33343 19.6665 5.39349 19.6667 7.93481C19.6667 10.4763 17.6302 12.5372 15.1179 12.5374C13.9914 12.5374 12.9613 12.1218 12.1667 11.4358C11.3722 12.1218 10.3421 12.5374 9.21558 12.5374C6.70329 12.5372 4.66675 10.4763 4.66675 7.93481C4.66698 5.39352 6.70344 3.33344 9.21558 3.33325C10.3419 3.33325 11.3723 3.748 12.1667 4.43384C12.9612 3.74798 13.9916 3.33325 15.1179 3.33325Z" fill="#ED0006"/>
<path d="M15.1179 3.33325C17.6301 3.33343 19.6665 5.39349 19.6667 7.93481C19.6667 10.4763 17.6302 12.5372 15.1179 12.5374C13.9914 12.5374 12.9613 12.1218 12.1667 11.4358C13.1443 10.5917 13.7654 9.33688 13.7654 7.93481C13.7653 6.53272 13.1444 5.27785 12.1667 4.43384C12.9612 3.74798 13.9916 3.33325 15.1179 3.33325Z" fill="#F9A000"/>
<path d="M12.1661 4.43384C13.144 5.27785 13.7647 6.53255 13.7648 7.93481C13.7648 9.33705 13.1439 10.5917 12.1661 11.4358C11.1888 10.5917 10.5685 9.33669 10.5685 7.93481C10.5686 6.53291 11.1887 5.27784 12.1661 4.43384Z" fill="#FF5E00"/>
</svg>
