<svg width="24" height="16" viewBox="0 0 24 16" fill="none" xmlns="http://www.w3.org/2000/svg">
<rect x="0.166667" y="0.166667" width="23" height="15.6667" rx="1.16667" fill="white" stroke="#D9D9D9" stroke-width="0.333333"/>
<path d="M10 15.3333L22.6667 11.5V14.6667C22.6667 15.0349 22.3682 15.3333 22 15.3333H10Z" fill="#FD6020"/>
<path d="M10.1227 6.07354C10.3666 6.07354 10.646 6.10996 10.8551 6.25323V6.96905C10.6809 6.75417 10.4014 6.61163 10.1227 6.61163C9.6004 6.64544 9.17042 7.08749 9.14709 7.61456V7.79327C9.14715 8.36626 9.60045 8.79613 10.1578 8.7962C10.4366 8.7962 10.6809 8.65271 10.8551 8.4378V9.1546C10.6113 9.26203 10.3672 9.33327 10.0885 9.33331C9.21747 9.33331 8.52022 8.58123 8.52014 7.68585C8.52014 6.75474 9.21699 6.00221 10.1227 6.07354ZM15.5934 8.22296L16.4293 6.07354H17.0573L15.7672 9.33331H15.4537L14.1647 6.07354H14.7916L15.5934 8.22296ZM7.33557 6.00226C7.64916 6.00226 7.96276 6.14575 8.20667 6.36065L7.89319 6.79034C7.75382 6.64707 7.57912 6.53936 7.40491 6.53936C7.19605 6.50389 7.02176 6.68301 6.98694 6.89776C6.98696 7.07677 7.09187 7.14813 7.44006 7.29132C8.13693 7.57786 8.31147 7.79314 8.34631 8.22296V8.33038C8.31147 8.90347 7.85791 9.33299 7.30042 9.29718C6.88248 9.29704 6.4645 9.08257 6.25549 8.68878L6.63928 8.29425C6.74381 8.54497 6.98749 8.72491 7.26624 8.72491H7.30042C7.50939 8.72491 7.71919 8.50969 7.71936 8.25909C7.71936 8.11585 7.64905 8.00846 7.54456 7.93683C7.40518 7.86519 7.26596 7.79296 7.12659 7.75714C6.56919 7.57806 6.39516 7.32752 6.39514 6.89776V6.86163C6.43012 6.36034 6.8479 5.9665 7.33557 6.00226ZM3.71155 6.07354C4.54752 6.10935 5.2098 6.82561 5.17542 7.68487C5.17542 8.15044 4.96614 8.58128 4.6178 8.90362C4.30426 9.15422 3.92089 9.29685 3.53772 9.26104H2.66663V6.07354H3.71155ZM6.01135 9.26202H5.41956V6.07354H6.01135V9.26202ZM19.0084 6.61163H17.9283V7.32745H18.9733V7.86456H17.9283V8.72393H19.0084V9.26202H17.3356V6.07354H19.0084V6.61163ZM20.2623 6.07354C20.9591 6.07355 21.3423 6.39651 21.3424 7.00518C21.3771 7.47066 21.0631 7.86423 20.6451 7.93585L21.5865 9.26104H20.8551L20.0533 7.97198H19.984V9.26104H19.3912V6.07354H20.2623ZM3.43323 6.61065H3.2594V8.72393H3.43323C3.71197 8.75975 4.02593 8.65205 4.23499 8.47296C4.44365 8.25814 4.54844 7.97175 4.54846 7.64972C4.54838 7.36337 4.44384 7.07643 4.23499 6.86163C4.02593 6.68264 3.71188 6.57485 3.43323 6.61065ZM19.984 7.54229H20.1578C20.5411 7.54229 20.7155 7.3627 20.7155 7.04034C20.7152 6.7542 20.5408 6.5755 20.1578 6.5755H19.984V7.54229Z" fill="black"/>
<path fill-rule="evenodd" clip-rule="evenodd" d="M12.6318 6C11.7608 6 11.0291 6.71636 11.0291 7.64763C11.0291 8.54308 11.7259 9.29525 12.6318 9.33107C13.5378 9.36689 14.2346 8.61471 14.2695 7.68344C14.2346 6.75218 13.5378 6 12.6318 6V6Z" fill="#FD6020"/>
</svg>
