<svg width="24" height="16" viewBox="0 0 24 16" fill="none" xmlns="http://www.w3.org/2000/svg">
<rect x="0.166667" y="0.166667" width="23" height="15.6667" rx="1.16667" fill="white" stroke="#D9D9D9" stroke-width="0.333333"/>
<path fill-rule="evenodd" clip-rule="evenodd" d="M7.08351 10.8389H5.66996L4.60997 6.79502C4.55966 6.609 4.45283 6.44455 4.29569 6.36704C3.90354 6.17226 3.47141 6.01724 3 5.93906V5.78337H5.27711C5.59139 5.78337 5.8271 6.01724 5.86638 6.28886L6.41636 9.20587L7.82922 5.78337H9.20348L7.08351 10.8389ZM9.98919 10.8389H8.65422L9.75349 5.78337H11.0885L9.98919 10.8389ZM12.8156 7.18389C12.8549 6.9116 13.0906 6.75591 13.3656 6.75591C13.7977 6.71682 14.2684 6.795 14.6613 6.98911L14.897 5.90062C14.5041 5.74493 14.072 5.66675 13.6798 5.66675C12.3841 5.66675 11.4413 6.36702 11.4413 7.33891C11.4413 8.07827 12.1092 8.46649 12.5806 8.70036C13.0906 8.93356 13.287 9.08925 13.2477 9.32245C13.2477 9.67225 12.8549 9.82794 12.4627 9.82794C11.9913 9.82794 11.5199 9.71134 11.0884 9.51656L10.8527 10.6057C11.3242 10.7998 11.8342 10.878 12.3056 10.878C13.7584 10.9164 14.6613 10.2168 14.6613 9.16676C14.6613 7.8444 12.8156 7.76689 12.8156 7.18389ZM19.3333 10.8389L18.2733 5.78337H17.1348C16.8991 5.78337 16.6634 5.93906 16.5848 6.17226L14.6219 10.8389H15.9962L16.2705 10.1002H17.9591L18.1162 10.8389H19.3333ZM17.3312 7.14478L17.7234 9.05013H16.6241L17.3312 7.14478Z" fill="#172B85"/>
</svg>
